<svg width="32" height="32" viewBox="0 0 32 32" fill="none" xmlns="http://www.w3.org/2000/svg">
<path d="M26.6663 13.3333C26.6663 19.9907 19.281 26.924 16.801 29.0653C16.57 29.2391 16.2887 29.333 15.9997 29.333C15.7106 29.333 15.4294 29.2391 15.1983 29.0653C12.7183 26.924 5.33301 19.9907 5.33301 13.3333C5.33301 10.5044 6.45681 7.79125 8.4572 5.79086C10.4576 3.79047 13.1707 2.66667 15.9997 2.66667C18.8287 2.66667 21.5418 3.79047 23.5421 5.79086C25.5425 7.79125 26.6663 10.5044 26.6663 13.3333Z" stroke="#FBC900" stroke-width="2.66667" stroke-linecap="round" stroke-linejoin="round"/>
<path d="M16 17.3333C18.2091 17.3333 20 15.5425 20 13.3333C20 11.1242 18.2091 9.33333 16 9.33333C13.7909 9.33333 12 11.1242 12 13.3333C12 15.5425 13.7909 17.3333 16 17.3333Z" stroke="#FBC900" stroke-width="2.66667" stroke-linecap="round" stroke-linejoin="round"/>
</svg>
