<svg width="32" height="32" viewBox="0 0 32 32" fill="none" xmlns="http://www.w3.org/2000/svg">
<path d="M28 21.3333V10.6667C27.9995 10.199 27.8761 9.73974 27.6421 9.33488C27.408 8.93002 27.0717 8.59382 26.6667 8.36L17.3333 3.02666C16.9279 2.79262 16.4681 2.6694 16 2.6694C15.5319 2.6694 15.0721 2.79262 14.6667 3.02666L5.33333 8.36C4.92835 8.59382 4.59197 8.93002 4.35795 9.33488C4.12392 9.73974 4.00048 10.199 4 10.6667V21.3333C4.00048 21.801 4.12392 22.2603 4.35795 22.6651C4.59197 23.07 4.92835 23.4062 5.33333 23.64L14.6667 28.9733C15.0721 29.2074 15.5319 29.3306 16 29.3306C16.4681 29.3306 16.9279 29.2074 17.3333 28.9733L26.6667 23.64C27.0717 23.4062 27.408 23.07 27.6421 22.6651C27.8761 22.2603 27.9995 21.801 28 21.3333Z" stroke="#121212" stroke-width="2.66667" stroke-linecap="round" stroke-linejoin="round"/>
<path d="M16.0003 21.3333C18.9458 21.3333 21.3337 18.9455 21.3337 16C21.3337 13.0545 18.9458 10.6667 16.0003 10.6667C13.0548 10.6667 10.667 13.0545 10.667 16C10.667 18.9455 13.0548 21.3333 16.0003 21.3333Z" stroke="#121212" stroke-width="2.66667" stroke-linecap="round" stroke-linejoin="round"/>
</svg>
