<svg width="32" height="32" viewBox="0 0 32 32" fill="none" xmlns="http://www.w3.org/2000/svg">
<path d="M7.99967 29.3333C7.29243 29.3333 6.61415 29.0524 6.11406 28.5523C5.61396 28.0522 5.33301 27.3739 5.33301 26.6667V5.33334C5.33301 4.62609 5.61396 3.94781 6.11406 3.44772C6.61415 2.94762 7.29243 2.66667 7.99967 2.66667H18.6663C19.0884 2.66598 19.5065 2.7488 19.8964 2.91036C20.2863 3.07192 20.6404 3.30901 20.9383 3.608L25.7223 8.392C26.0221 8.69001 26.2599 9.04446 26.4219 9.43488C26.584 9.82531 26.667 10.244 26.6663 10.6667V26.6667C26.6663 27.3739 26.3854 28.0522 25.8853 28.5523C25.3852 29.0524 24.7069 29.3333 23.9997 29.3333H7.99967Z" stroke="#121212" stroke-width="2.66667" stroke-linecap="round" stroke-linejoin="round"/>
<path d="M18.667 2.66667V9.33333C18.667 9.68696 18.8075 10.0261 19.0575 10.2761C19.3076 10.5262 19.6467 10.6667 20.0003 10.6667H26.667" stroke="#121212" stroke-width="2.66667" stroke-linecap="round" stroke-linejoin="round"/>
<path d="M13.3337 12H10.667" stroke="#121212" stroke-width="2.66667" stroke-linecap="round" stroke-linejoin="round"/>
<path d="M21.3337 17.3333H10.667" stroke="#121212" stroke-width="2.66667" stroke-linecap="round" stroke-linejoin="round"/>
<path d="M21.3337 22.6667H10.667" stroke="#121212" stroke-width="2.66667" stroke-linecap="round" stroke-linejoin="round"/>
</svg>
