<svg width="32" height="32" viewBox="0 0 32 32" fill="none" xmlns="http://www.w3.org/2000/svg">
<path d="M16.0003 4C16.8892 7.55556 18.667 10.4444 21.3337 12.6667C24.0003 14.8889 25.3337 17.3333 25.3337 20C25.3337 22.4754 24.3503 24.8493 22.6 26.5997C20.8496 28.35 18.4757 29.3333 16.0003 29.3333C13.525 29.3333 11.151 28.35 9.40066 26.5997C7.65032 24.8493 6.66699 22.4754 6.66699 20C6.66699 18.5575 7.13484 17.154 8.00033 16C8.00033 16.8841 8.35152 17.7319 8.97664 18.357C9.60176 18.9821 10.4496 19.3333 11.3337 19.3333C12.2177 19.3333 13.0656 18.9821 13.6907 18.357C14.3158 17.7319 14.667 16.8841 14.667 16C14.667 13.3333 12.667 12 12.667 9.33333C12.667 7.55556 13.7781 5.77778 16.0003 4Z" stroke="#ffffff" stroke-width="2.66667" stroke-linecap="round" stroke-linejoin="round"/>
</svg>
