<svg width="32" height="32" viewBox="0 0 32 32" fill="none" xmlns="http://www.w3.org/2000/svg">
<path d="M18.443 22.0907C18.7184 22.2171 19.0286 22.246 19.3226 22.1726C19.6166 22.0992 19.8768 21.9278 20.0603 21.6867L20.5337 21.0667C20.7821 20.7355 21.1041 20.4667 21.4744 20.2815C21.8447 20.0964 22.253 20 22.667 20H26.667C27.3742 20 28.0525 20.281 28.5526 20.7811C29.0527 21.2811 29.3337 21.9594 29.3337 22.6667V26.6667C29.3337 27.3739 29.0527 28.0522 28.5526 28.5523C28.0525 29.0524 27.3742 29.3333 26.667 29.3333C20.3018 29.3333 14.1973 26.8048 9.69643 22.3039C5.19556 17.803 2.66699 11.6985 2.66699 5.33333C2.66699 4.62609 2.94794 3.94781 3.44804 3.44772C3.94814 2.94762 4.62641 2.66667 5.33366 2.66667H9.33366C10.0409 2.66667 10.7192 2.94762 11.2193 3.44772C11.7194 3.94781 12.0003 4.62609 12.0003 5.33333V9.33333C12.0003 9.74732 11.9039 10.1556 11.7188 10.5259C11.5337 10.8962 11.2648 11.2183 10.9337 11.4667L10.3097 11.9347C10.0649 12.1216 9.89235 12.3874 9.82138 12.6871C9.75041 12.9868 9.78537 13.3018 9.92033 13.5787C11.7426 17.2798 14.7396 20.2731 18.443 22.0907Z" stroke="#FBC900" stroke-width="2.66667" stroke-linecap="round" stroke-linejoin="round"/>
</svg>
