<svg width="32" height="32" viewBox="0 0 32 32" fill="none" xmlns="http://www.w3.org/2000/svg">
<path d="M26.6663 17.3333C26.6663 24 21.9997 27.3333 16.453 29.2667C16.1626 29.3651 15.8471 29.3604 15.5597 29.2533C9.99967 27.3333 5.33301 24 5.33301 17.3333V8C5.33301 7.64638 5.47348 7.30724 5.72353 7.05719C5.97358 6.80714 6.31272 6.66666 6.66634 6.66666C9.33301 6.66666 12.6663 5.06666 14.9863 3.04C15.2688 2.79866 15.6281 2.66607 15.9997 2.66607C16.3712 2.66607 16.7305 2.79866 17.013 3.04C19.3463 5.08 22.6663 6.66666 25.333 6.66666C25.6866 6.66666 26.0258 6.80714 26.2758 7.05719C26.5259 7.30724 26.6663 7.64638 26.6663 8V17.3333Z" stroke="#121212" stroke-width="2.66667" stroke-linecap="round" stroke-linejoin="round"/>
<path d="M12 16L14.6667 18.6667L20 13.3333" stroke="#121212" stroke-width="2.66667" stroke-linecap="round" stroke-linejoin="round"/>
</svg>
