<svg width="32" height="32" viewBox="0 0 32 32" fill="none" xmlns="http://www.w3.org/2000/svg">
<path d="M2.66699 8C3.46699 8.66667 4.26699 9.33333 6.00033 9.33333C9.33366 9.33333 9.33366 6.66667 12.667 6.66667C16.1337 6.66667 15.867 9.33333 19.3337 9.33333C22.667 9.33333 22.667 6.66667 26.0003 6.66667C27.7337 6.66667 28.5337 7.33333 29.3337 8" stroke="#121212" stroke-width="2.66667" stroke-linecap="round" stroke-linejoin="round"/>
<path d="M2.66699 16C3.46699 16.6667 4.26699 17.3333 6.00033 17.3333C9.33366 17.3333 9.33366 14.6667 12.667 14.6667C16.1337 14.6667 15.867 17.3333 19.3337 17.3333C22.667 17.3333 22.667 14.6667 26.0003 14.6667C27.7337 14.6667 28.5337 15.3333 29.3337 16" stroke="#121212" stroke-width="2.66667" stroke-linecap="round" stroke-linejoin="round"/>
<path d="M2.66699 24C3.46699 24.6667 4.26699 25.3333 6.00033 25.3333C9.33366 25.3333 9.33366 22.6667 12.667 22.6667C16.1337 22.6667 15.867 25.3333 19.3337 25.3333C22.667 25.3333 22.667 22.6667 26.0003 22.6667C27.7337 22.6667 28.5337 23.3333 29.3337 24" stroke="#121212" stroke-width="2.66667" stroke-linecap="round" stroke-linejoin="round"/>
</svg>
