<svg width="32" height="32" viewBox="0 0 32 32" fill="none" xmlns="http://www.w3.org/2000/svg">
<path d="M19.6 8.4C19.3557 8.64924 19.2188 8.98433 19.2188 9.33333C19.2188 9.68234 19.3557 10.0174 19.6 10.2667L21.7333 12.4C21.9825 12.6443 22.3176 12.7811 22.6666 12.7811C23.0156 12.7811 23.3507 12.6443 23.6 12.4L27.7413 8.26C28.168 7.83067 28.892 7.96667 29.052 8.55067C29.4548 10.0158 29.4321 11.5654 28.9863 13.0181C28.5406 14.4708 27.6904 15.7665 26.5352 16.7537C25.3799 17.7408 23.9674 18.3785 22.463 18.5921C20.9585 18.8057 19.4244 18.5865 18.04 17.96L7.4933 28.5067C6.96287 29.0369 6.24352 29.3347 5.4935 29.3346C4.74348 29.3345 4.02423 29.0364 3.49397 28.506C2.96372 27.9756 2.66589 27.2562 2.66602 26.5062C2.66614 25.7562 2.96421 25.0369 3.49464 24.5067L14.0413 13.96C13.4148 12.5756 13.1956 11.0414 13.4092 9.537C13.6229 8.03255 14.2605 6.62007 15.2477 5.46482C16.2348 4.30957 17.5305 3.45935 18.9832 3.01363C20.4359 2.56792 21.9855 2.54515 23.4506 2.948C24.0346 3.108 24.1706 3.83067 23.7426 4.26L19.6 8.4Z" stroke="#121212" stroke-width="2.66667" stroke-linecap="round" stroke-linejoin="round"/>
</svg>
